<svg width="48" height="44" viewBox="0 0 48 44" fill="none" xmlns="http://www.w3.org/2000/svg">
<path d="M47.3243 33.3438C46.8171 31.4492 44.8474 30.2979 42.8403 30.7188L28.8509 33.6888C29.1261 32.9321 29.1267 32.1028 28.8525 31.3457C28.5783 30.5886 28.0468 29.952 27.3509 29.547L19.2415 24.8641C18.9161 24.6609 18.6104 24.4277 18.3284 24.1676C17.6159 23.5516 16.729 22.7857 15.0762 22.6095C13.5059 22.4426 11.4621 22.811 8.7012 23.7663C8.60904 23.1809 8.31106 22.6475 7.86083 22.262C7.4106 21.8766 6.83764 21.6643 6.24495 21.6635H3.4362C2.77704 21.6643 2.14508 21.9265 1.67898 22.3926C1.21288 22.8587 0.950696 23.4906 0.949951 24.1498V37.9695C0.950696 38.6286 1.21288 39.2606 1.67898 39.7267C2.14508 40.1928 2.77704 40.455 3.4362 40.4557H6.23651C6.88876 40.4548 7.5146 40.1979 7.97938 39.7403C8.44417 39.2827 8.71077 38.661 8.72183 38.0088C10.9587 37.6948 13.8003 39.3167 16.5546 40.8898C18.9284 42.2454 21.1915 43.5382 23.0824 43.5382C23.4382 43.5411 23.7923 43.4896 24.1325 43.3854L44.7124 37.871C45.6589 37.6166 46.4656 36.9969 46.9554 36.148C47.4451 35.2991 47.5778 34.2905 47.3243 33.3438ZM6.23651 38.9557H3.4362C3.17471 38.9555 2.924 38.8515 2.73909 38.6666C2.55419 38.4817 2.4502 38.231 2.44995 37.9695V24.1498C2.4502 23.8883 2.55419 23.6376 2.73909 23.4527C2.924 23.2678 3.17471 23.1638 3.4362 23.1635H6.23651C6.49801 23.1638 6.74872 23.2678 6.93362 23.4527C7.11853 23.6376 7.22252 23.8883 7.22276 24.1498V37.9695C7.22252 38.231 7.11853 38.4817 6.93362 38.6666C6.74872 38.8515 6.49801 38.9555 6.23651 38.9557ZM44.3243 36.4245L23.7312 41.9407L23.6965 41.951C22.25 42.4132 19.7337 40.977 17.3009 39.5876C14.4012 37.9301 11.4125 36.2257 8.72558 36.4938V25.346C14.8521 23.1485 16.1196 24.2426 17.3506 25.302C17.7031 25.6255 18.0861 25.914 18.4943 26.1635L26.6037 30.8454C26.8227 30.9725 27.0144 31.1414 27.1681 31.3426C27.3218 31.5437 27.4343 31.7732 27.4993 32.0179C27.5643 32.2625 27.5805 32.5176 27.5469 32.7685C27.5133 33.0194 27.4306 33.2613 27.3035 33.4802C27.1765 33.6992 27.0076 33.891 26.8064 34.0447C26.6052 34.1983 26.3757 34.3109 26.1311 34.3759C25.8864 34.4408 25.6313 34.457 25.3804 34.4234C25.1295 34.3898 24.8877 34.3071 24.6687 34.1801L17.8981 30.2717C17.7263 30.1784 17.5248 30.1558 17.3367 30.2089C17.1485 30.2619 16.9885 30.3863 16.8907 30.5556C16.793 30.7249 16.7651 30.9257 16.8132 31.1152C16.8613 31.3047 16.9814 31.4679 17.1481 31.5701L23.9187 35.4795C24.4375 35.7798 25.0264 35.9379 25.6259 35.9379C26.1639 35.9371 26.6942 35.8106 27.1746 35.5685C27.2099 35.5661 27.245 35.5614 27.2796 35.5545L43.1478 32.1945C44.3956 31.9301 45.5665 32.5929 45.8731 33.7357C46.0227 34.2972 45.9437 34.8952 45.6535 35.3986C45.3632 35.902 44.8853 36.2699 44.3243 36.4216V36.4245ZM6.08651 25.872C6.08726 26.1195 6.01452 26.3617 5.87751 26.5679C5.7405 26.7741 5.54538 26.9349 5.31687 27.0301C5.08836 27.1254 4.83674 27.1506 4.59387 27.1027C4.351 27.0548 4.12781 26.9359 3.95257 26.761C3.77732 26.5862 3.65792 26.3633 3.60946 26.1205C3.56101 25.8777 3.58569 25.6261 3.68038 25.3973C3.77507 25.1686 3.9355 24.9731 4.14137 24.8357C4.34724 24.6982 4.58928 24.6249 4.83683 24.6251C5.16755 24.6258 5.48456 24.7573 5.71868 24.9909C5.9528 25.2245 6.08503 25.5412 6.08651 25.872ZM20.8934 17.6323H22.1628C22.4143 18.5365 22.7751 19.4066 23.2371 20.2235L22.34 21.1216C22.1045 21.354 21.9619 21.6641 21.9386 21.994C21.9153 22.3239 22.013 22.6511 22.2134 22.9141C23.0068 23.967 23.9437 24.9036 24.9968 25.6966C25.2597 25.8976 25.5868 25.9957 25.9168 25.9726C26.2468 25.9494 26.5571 25.8066 26.7893 25.571L27.6875 24.6738C28.5042 25.136 29.374 25.4974 30.2778 25.7501V27.0195C30.2758 27.3502 30.3944 27.6704 30.6115 27.9199C30.8286 28.1695 31.1293 28.3313 31.4571 28.3751C32.7632 28.559 34.0886 28.559 35.3946 28.3751C35.723 28.3315 36.0241 28.1695 36.2414 27.9195C36.4588 27.6695 36.5774 27.3488 36.5749 27.0176V25.7501C37.479 25.4982 38.3491 25.1374 39.1662 24.6757L40.0634 25.5729C40.2956 25.8085 40.6059 25.9513 40.9359 25.9744C41.2659 25.9976 41.593 25.8995 41.8559 25.6985C42.9087 24.905 43.845 23.9677 44.6374 22.9141C44.838 22.6512 44.9358 22.3241 44.9127 21.9942C44.8896 21.6643 44.7471 21.3541 44.5118 21.1216L43.6137 20.2235C44.0758 19.407 44.4366 18.5371 44.6881 17.6332H45.9584C46.2892 17.6354 46.6095 17.5168 46.859 17.2997C47.1086 17.0825 47.2704 16.7818 47.314 16.4538C47.4979 15.1478 47.4979 13.8224 47.314 12.5163C47.2702 12.1886 47.1083 11.888 46.8588 11.6711C46.6092 11.4541 46.2891 11.3357 45.9584 11.3379H44.6871C44.4351 10.4337 44.074 9.5636 43.6118 8.74665L44.5099 7.84946C44.744 7.61757 44.8859 7.30861 44.9094 6.97997C44.9328 6.65134 44.8362 6.32536 44.6374 6.06259C43.8445 5.00904 42.9076 4.07207 41.854 3.27915C41.5912 3.07822 41.264 2.98012 40.934 3.00325C40.604 3.02638 40.2938 3.16915 40.0615 3.40477L39.1643 4.3029C38.3481 3.83972 37.4786 3.47738 36.5749 3.22384V1.95446C36.5772 1.62368 36.4588 1.30342 36.2418 1.0537C36.0249 0.803975 35.7244 0.641921 35.3965 0.597899C34.0903 0.415935 32.7652 0.415935 31.459 0.597899C31.1312 0.642112 30.8308 0.804222 30.6139 1.0539C30.397 1.30358 30.2785 1.62373 30.2806 1.95446V3.22384C29.3758 3.47583 28.505 3.83692 27.6875 4.29915L26.7893 3.40102C26.5569 3.16576 26.2467 3.02324 25.9168 3.00012C25.5869 2.977 25.2598 3.07486 24.9968 3.2754C23.943 4.06947 23.006 5.00771 22.2134 6.06259C22.0128 6.32561 21.915 6.65276 21.9382 6.98273C21.9615 7.31271 22.1044 7.62286 22.34 7.85509L23.2371 8.75227C22.7749 9.56908 22.4141 10.4393 22.1628 11.3435H20.8934C20.5626 11.3413 20.2423 11.4597 19.9926 11.6766C19.7429 11.8936 19.5808 12.1941 19.5368 12.522C19.3529 13.828 19.3529 15.1534 19.5368 16.4595C19.5819 16.7864 19.7444 17.0857 19.9941 17.3015C20.2437 17.5173 20.5634 17.6349 20.8934 17.6323ZM21.0068 12.8398H22.7468C22.9174 12.8398 23.0829 12.7817 23.216 12.675C23.3491 12.5683 23.4419 12.4194 23.479 12.2529C23.7346 11.1107 24.1863 10.0214 24.814 9.03352C24.9053 8.88959 24.9448 8.71887 24.926 8.54949C24.9073 8.3801 24.8314 8.22215 24.7109 8.10165L23.4809 6.87071C24.1516 5.99563 24.9346 5.21266 25.8096 4.54196L27.0396 5.7729C27.1602 5.89363 27.3183 5.96964 27.4879 5.98839C27.6575 6.00714 27.8284 5.9675 27.9724 5.87602C28.9603 5.24829 30.0496 4.7966 31.1918 4.54102C31.3575 4.50388 31.5057 4.41159 31.6122 4.27927C31.7186 4.14694 31.777 3.98241 31.7778 3.81259V2.0679C32.8709 1.9254 33.978 1.9254 35.0712 2.0679V3.81259C35.0712 3.98318 35.1293 4.14869 35.236 4.2818C35.3427 4.41491 35.4916 4.50767 35.6581 4.54477C36.7997 4.79885 37.8887 5.24896 38.8765 5.87509C39.0205 5.96657 39.1915 6.0062 39.361 5.98746C39.5306 5.96871 39.6888 5.89269 39.8093 5.77196L41.0403 4.54102C41.9148 5.212 42.6975 5.99494 43.3681 6.86977L42.1381 8.10071C42.0176 8.22121 41.9417 8.37916 41.923 8.54855C41.9042 8.71793 41.9437 8.88865 42.0349 9.03259C42.6628 10.0198 43.1145 11.1084 43.3699 12.2501C43.4072 12.4164 43.5001 12.5651 43.6332 12.6716C43.7663 12.7781 43.9317 12.8361 44.1021 12.836H45.8421C45.9859 13.9291 45.9859 15.0364 45.8421 16.1295H44.1012C43.9309 16.1296 43.7657 16.1877 43.6328 16.2942C43.4999 16.4007 43.4072 16.5492 43.3699 16.7154C43.1147 17.8586 42.663 18.9488 42.0349 19.9376C41.9437 20.0815 41.9042 20.2522 41.923 20.4216C41.9417 20.591 42.0176 20.749 42.1381 20.8695L43.369 22.1004C42.6978 22.975 41.9149 23.7579 41.0403 24.4291L39.8093 23.1992C39.6887 23.0788 39.5307 23.0031 39.3613 22.9845C39.1919 22.9659 39.0213 23.0056 38.8774 23.097C37.8893 23.7249 36.7997 24.1766 35.6571 24.432C35.491 24.4692 35.3424 24.5619 35.2359 24.6948C35.1294 24.8277 35.0713 24.9929 35.0712 25.1632V26.9042C33.978 27.0466 32.8709 27.0466 31.7778 26.9042V25.1632C31.7778 24.9927 31.7198 24.8273 31.6133 24.6942C31.5068 24.5612 31.3582 24.4683 31.1918 24.431C30.0493 24.1765 28.9598 23.7247 27.9724 23.096C27.8284 23.0045 27.6575 22.9649 27.4879 22.9837C27.3183 23.0024 27.1602 23.0784 27.0396 23.1992L25.8096 24.4301C24.9346 23.7594 24.1516 22.9764 23.4809 22.1013L24.7109 20.8751C24.8314 20.7546 24.9073 20.5966 24.926 20.4272C24.9448 20.2579 24.9053 20.0871 24.814 19.9432C24.1861 18.9554 23.7344 17.8661 23.479 16.7238C23.4419 16.5573 23.3491 16.4084 23.216 16.3017C23.0829 16.1951 22.9174 16.1369 22.7468 16.137H21.0068C20.8631 15.0442 20.8631 13.9373 21.0068 12.8445V12.8398ZM33.4249 22.0001C34.9103 22.0001 36.3624 21.5596 37.5975 20.7344C38.8325 19.9091 39.7951 18.7362 40.3636 17.3638C40.932 15.9915 41.0807 14.4814 40.791 13.0246C40.5012 11.5677 39.7859 10.2295 38.7355 9.17918C37.6852 8.12884 36.347 7.41356 34.8901 7.12377C33.4333 6.83398 31.9232 6.98271 30.5509 7.55115C29.1785 8.11959 28.0056 9.0822 27.1804 10.3173C26.3551 11.5523 25.9146 13.0044 25.9146 14.4898C25.9169 16.4809 26.7089 18.3899 28.1168 19.7979C29.5248 21.2059 31.4338 21.9979 33.4249 22.0001ZM33.4249 8.47946C34.6137 8.47946 35.7757 8.83196 36.7641 9.49238C37.7525 10.1528 38.5228 11.0915 38.9778 12.1897C39.4327 13.288 39.5517 14.4964 39.3198 15.6623C39.0879 16.8282 38.5154 17.8991 37.6749 18.7397C36.8343 19.5803 35.7634 20.1527 34.5975 20.3846C33.4316 20.6165 32.2231 20.4975 31.1249 20.0426C30.0267 19.5877 29.088 18.8173 28.4276 17.8289C27.7671 16.8405 27.4146 15.6785 27.4146 14.4898C27.4154 12.8956 28.0487 11.3669 29.1756 10.2393C30.3025 9.11175 31.8308 8.47745 33.4249 8.47571V8.47946ZM30.3059 15.1995C30.2363 15.1298 30.181 15.0471 30.1434 14.956C30.1057 14.865 30.0864 14.7675 30.0864 14.669C30.0865 14.5705 30.1059 14.4729 30.1437 14.382C30.1814 14.291 30.2367 14.2083 30.3064 14.1387C30.376 14.0691 30.4587 14.0138 30.5498 13.9762C30.6408 13.9385 30.7383 13.9192 30.8368 13.9192C30.9353 13.9193 31.0329 13.9387 31.1239 13.9764C31.2148 14.0142 31.2975 14.0695 31.3671 14.1391L32.5718 15.3438L35.4499 12.041C35.5849 11.9079 35.7652 11.8307 35.9547 11.8251C36.1441 11.8195 36.3287 11.8859 36.4712 12.0108C36.6138 12.1358 36.7037 12.3101 36.7229 12.4987C36.7422 12.6872 36.6893 12.8761 36.5749 13.0273L33.1718 16.931C33.1042 17.0086 33.0214 17.0714 32.9285 17.1156C32.8356 17.1598 32.7346 17.1844 32.6318 17.1879H32.6065C32.508 17.188 32.4104 17.1686 32.3194 17.131C32.2283 17.0934 32.1456 17.0381 32.0759 16.9685L30.3059 15.1995Z" fill="#1D1F2C"/>
</svg>
