<svg width="49" height="48" viewBox="0 0 49 48" fill="none" xmlns="http://www.w3.org/2000/svg">
<path d="M24.8 0C11.5567 0 0.800049 10.7566 0.800049 24C0.800049 37.2434 11.5567 48 24.8 48C38.0434 48 48.8 37.2434 48.8 24C48.8 10.7566 38.0434 0 24.8 0ZM24.8 45.9181C12.7133 45.9181 2.88198 36.0867 2.88198 24C2.88198 11.9133 12.7133 2.08193 24.8 2.08193C36.8868 2.08193 46.7181 11.9133 46.7181 24C46.7181 36.0867 36.8868 45.9181 24.8 45.9181Z" fill="#1D1F2C"/>
<path d="M37.2909 18.795H30.0042V11.5082C30.0042 10.9299 29.5415 10.4673 28.9632 10.4673H20.6355C20.0572 10.4673 19.5946 10.9299 19.5946 11.5082V18.795H12.3078C11.7295 18.795 11.2668 19.2576 11.2668 19.836V28.1637C11.2668 28.742 11.7295 29.2046 12.3078 29.2046H19.5946V36.4914C19.5946 37.0697 20.0572 37.5323 20.6355 37.5323H28.9632C29.5415 37.5323 30.0042 37.0697 30.0042 36.4914V29.2046H37.2909C37.8693 29.2046 38.3319 28.742 38.3319 28.1637V19.836C38.2741 19.2576 37.8114 18.795 37.2909 18.795ZM36.3078 27.1227H28.9632C28.3849 27.1227 27.9223 27.5854 27.9223 28.1637V35.4504H21.6765V28.1637C21.6765 27.5854 21.2138 27.1227 20.6355 27.1227H13.3488V20.8769H20.6355C21.2138 20.8769 21.6765 20.4143 21.6765 19.836V12.5492H27.9801V19.836C27.9801 20.4143 28.4427 20.8769 29.0211 20.8769H36.3078V27.1227Z" fill="#1D1F2C"/>
</svg>
